<svg width="500" height="500" viewBox="0 0 500 500" fill="none" xmlns="http://www.w3.org/2000/svg">
<circle cx="250" cy="250" r="250" fill="#FF0420"/>
<path d="M391.8 397.087L415.283 309.854L435.994 346.393L412.434 433.703L391.8 397.087Z" fill="#CF1733"/>
<path d="M116.395 236.158L139.955 148.848C138.645 154.973 138.57 161.298 139.733 167.453C140.896 173.608 143.275 179.469 146.731 184.695C178.375 241.158 298.945 297.698 415.359 309.852L391.799 397.086C275.386 384.624 154.815 328.468 122.94 272.005C119.528 266.761 117.192 260.891 116.068 254.738C114.945 248.584 115.056 242.269 116.395 236.158V236.158Z" fill="url(#paint0_linear)"/>
<path d="M255.519 155.688L279.079 68.3782L299.79 104.995L276.153 192.228L255.519 155.688Z" fill="#D31033"/>
<path d="M38.9388 215.231L62.0366 127.998C74.9714 80.8432 158.047 55.381 279.079 68.3814L255.52 155.691C134.487 142.691 51.4116 168.153 38.9388 215.231Z" fill="url(#paint1_linear)"/>
<path d="M47.5603 263.844C4.36732 186.919 97.6056 138.687 255.441 155.687L276.075 192.227C159.739 179.688 91.2922 215.304 122.859 271.998C154.426 328.692 275.382 384.617 391.795 397.078L412.429 433.695C254.517 416.694 90.8302 340.538 47.5603 263.844Z" fill="url(#paint2_linear)"/>
<path d="M177.133 316.446C162.247 316.446 150.051 312.943 140.544 305.938C131.162 298.808 126.471 288.676 126.471 275.541C126.471 272.789 126.784 269.411 127.409 265.408C129.036 256.402 131.35 245.581 134.352 232.947C142.858 198.547 164.812 181.347 200.213 181.347C209.845 181.347 218.476 182.973 226.107 186.225C233.738 189.352 239.742 194.106 244.12 200.486C248.498 206.74 250.688 214.246 250.688 223.002C250.688 225.629 250.375 228.944 249.749 232.947C247.873 244.08 245.621 254.901 242.994 265.408C238.616 282.546 231.048 295.368 220.29 303.874C209.532 312.255 195.147 316.446 177.133 316.446ZM179.76 289.426C186.766 289.426 192.707 287.362 197.586 283.234C202.59 279.106 206.155 272.789 208.281 264.283C211.158 252.524 213.348 242.266 214.849 233.51C215.349 230.883 215.599 228.194 215.599 225.441C215.599 214.058 209.657 208.366 197.774 208.366C190.768 208.366 184.764 210.43 179.76 214.558C174.882 218.687 171.379 225.004 169.253 233.51C167.001 241.891 164.749 252.149 162.498 264.283C161.997 266.784 161.747 269.411 161.747 272.163C161.747 283.672 167.752 289.426 179.76 289.426Z" fill="white"/>
<path d="M259.303 314.57C257.927 314.57 256.863 314.132 256.113 313.256C255.487 312.255 255.3 311.13 255.55 309.879L281.444 187.914C281.694 186.538 282.382 185.412 283.508 184.536C284.634 183.661 285.822 183.223 287.073 183.223H336.985C350.87 183.223 362.003 186.1 370.384 191.854C378.891 197.609 383.144 205.927 383.144 216.81C383.144 219.937 382.769 223.19 382.018 226.567C378.891 240.953 372.574 251.586 363.067 258.466C353.685 265.346 340.8 268.786 324.413 268.786H299.082L290.451 309.879C290.2 311.255 289.512 312.38 288.387 313.256C287.261 314.132 286.072 314.57 284.822 314.57H259.303ZM325.727 242.892C330.98 242.892 335.546 241.453 339.424 238.576C343.427 235.699 346.054 231.571 347.305 226.192C347.68 224.065 347.868 222.189 347.868 220.563C347.868 216.935 346.805 214.183 344.678 212.307C342.551 210.305 338.924 209.305 333.795 209.305H311.278L304.148 242.892H325.727Z" fill="white"/>
<defs>
<linearGradient id="paint0_linear" x1="1.91596e+06" y1="1.88706e+06" x2="1.90757e+06" y2="1.88281e+06" gradientUnits="userSpaceOnUse">
<stop stop-color="#CA1F33"/>
<stop offset="1" stop-color="#CA1F33"/>
</linearGradient>
<linearGradient id="paint1_linear" x1="2.61031e+06" y1="3.34484e+06" x2="2.61595e+06" y2="3.34302e+06" gradientUnits="userSpaceOnUse">
<stop stop-color="#D31033"/>
<stop offset="1" stop-color="#D31033"/>
</linearGradient>
<linearGradient id="paint2_linear" x1="335.426" y1="215.893" x2="168.523" y2="373.608" gradientUnits="userSpaceOnUse">
<stop stop-color="#D71332"/>
<stop offset="0.36" stop-color="#EC202C"/>
<stop offset="1" stop-color="#DF182F"/>
</linearGradient>
</defs>
</svg>
