<svg width="213" height="212" viewBox="0 0 213 212" fill="none" xmlns="http://www.w3.org/2000/svg">
<path d="M106.305 211.859C47.8475 211.859 0.322754 164.358 0.322754 105.929C0.322754 47.501 47.8475 0 106.305 0C164.718 0 212.287 47.501 212.287 105.929C212.287 164.358 164.718 211.859 106.305 211.859ZM106.305 4.46018C50.3464 4.46018 4.78517 49.9987 4.78517 105.929C4.78517 161.86 50.3464 207.399 106.305 207.399C162.264 207.399 207.825 161.86 207.825 105.929C207.825 49.9987 162.264 4.46018 106.305 4.46018Z" fill="white"/>
<path d="M207.826 105.795C203.007 125.822 189.441 127.026 183.104 127.071H177.66C173.376 117.437 164.094 110.791 150.484 109.051C163.336 105.662 177.973 94.7788 177.973 79.971C177.973 65.3416 165.924 56.1982 149.368 56.1982C131.206 56.1982 115.008 66.1444 109.474 83.673L84.9312 154.367L55.39 68.3299C51.9093 58.2053 33.7473 58.2053 33.7473 58.2053H32.4978V57.7147C26.6074 57.7147 10.9444 57.7147 5.67871 80.7292L7.82065 81.2199C12.7293 59.9002 27.0983 59.9002 32.5425 59.9002V59.5434C39.1468 61.1044 43.2523 62.3087 45.305 68.3299L80.9596 171.405H83.5478L110.858 92.0581C117.73 71.3183 127.101 61.9965 144.46 61.9965C156.999 61.9965 166.326 71.3183 166.326 83.4946C166.326 94.422 159.275 106.955 135.178 108.873L135.49 110.791C150.975 112.218 160.212 118.418 164.987 127.026H110.635L109.921 129.256H109.965C103.004 152.092 118.265 173.412 143.344 173.412C166.013 173.412 180.427 160.254 180.427 140.005C180.427 136.169 179.802 132.557 178.642 129.256H182.033C188.191 129.256 204.524 129.256 210.057 106.241L207.826 105.795ZM168.958 144.554C168.958 159.808 159.141 170.067 142.139 170.067C128.797 170.067 118.667 157.712 119.158 142.458C119.158 142.28 119.158 141.968 119.158 141.834V140.853C119.783 134.162 123.933 129.524 149.815 129.301H165.924C168.021 133.939 168.958 139.113 168.958 144.554Z" fill="white"/>
<path d="M32.4976 57.7593C32.4976 57.7593 39.6821 57.1349 45.4386 59.1866C49.901 60.7476 51.8198 61.1045 54.765 66.9919C57.7102 72.8793 45.3494 64.8956 45.3494 64.8956L40.1284 62.0411C40.1284 62.0411 35.7552 59.9448 32.4976 59.9448C29.2401 59.9448 32.4976 57.7593 32.4976 57.7593Z" fill="white"/>
</svg>
